<mxfile host="app.diagrams.net" modified="2022-01-07T04:07:01.722Z" agent="5.0 (Macintosh; Intel Mac OS X 10_15_7) AppleWebKit/537.36 (KHTML, like Gecko) Chrome/95.0.4638.69 Safari/537.36" etag="8AJ7uXxbIpKni2hnw8Vn" version="16.2.2" type="github">
  <diagram id="C5RBs43oDa-KdzZeNtuy" name="Page-1">
    <mxGraphModel dx="1127" dy="731" grid="1" gridSize="10" guides="1" tooltips="1" connect="1" arrows="1" fold="1" page="1" pageScale="1" pageWidth="827" pageHeight="1169" math="0" shadow="0">
      <root>
        <mxCell id="WIyWlLk6GJQsqaUBKTNV-0" />
        <mxCell id="WIyWlLk6GJQsqaUBKTNV-1" parent="WIyWlLk6GJQsqaUBKTNV-0" />
        <mxCell id="eDqn43a6uC6IvlH1TO0N-28" value="" style="rounded=0;whiteSpace=wrap;html=1;dashed=1;" vertex="1" parent="WIyWlLk6GJQsqaUBKTNV-1">
          <mxGeometry x="404" y="170" width="140" height="220" as="geometry" />
        </mxCell>
        <mxCell id="eDqn43a6uC6IvlH1TO0N-27" value="&lt;br&gt;&lt;br&gt;&lt;br&gt;&lt;br&gt;&lt;br&gt;&lt;br&gt;&lt;br&gt;&lt;br&gt;&lt;br&gt;&lt;br&gt;" style="rounded=0;whiteSpace=wrap;html=1;dashed=1;" vertex="1" parent="WIyWlLk6GJQsqaUBKTNV-1">
          <mxGeometry x="250" y="170" width="140" height="220" as="geometry" />
        </mxCell>
        <mxCell id="eDqn43a6uC6IvlH1TO0N-34" style="edgeStyle=orthogonalEdgeStyle;rounded=0;orthogonalLoop=1;jettySize=auto;html=1;exitX=0.5;exitY=1;exitDx=0;exitDy=0;entryX=0.5;entryY=0;entryDx=0;entryDy=0;fontSize=14;" edge="1" parent="WIyWlLk6GJQsqaUBKTNV-1" source="WIyWlLk6GJQsqaUBKTNV-3" target="eDqn43a6uC6IvlH1TO0N-33">
          <mxGeometry relative="1" as="geometry" />
        </mxCell>
        <mxCell id="WIyWlLk6GJQsqaUBKTNV-3" value="种子笔记" style="rounded=1;whiteSpace=wrap;html=1;fontSize=12;glass=0;strokeWidth=1;shadow=0;" parent="WIyWlLk6GJQsqaUBKTNV-1" vertex="1">
          <mxGeometry x="414" y="210" width="120" height="40" as="geometry" />
        </mxCell>
        <mxCell id="eDqn43a6uC6IvlH1TO0N-8" style="edgeStyle=orthogonalEdgeStyle;rounded=0;orthogonalLoop=1;jettySize=auto;html=1;exitX=0.5;exitY=1;exitDx=0;exitDy=0;entryX=0.5;entryY=0;entryDx=0;entryDy=0;" edge="1" parent="WIyWlLk6GJQsqaUBKTNV-1" source="eDqn43a6uC6IvlH1TO0N-1" target="eDqn43a6uC6IvlH1TO0N-3">
          <mxGeometry relative="1" as="geometry" />
        </mxCell>
        <mxCell id="eDqn43a6uC6IvlH1TO0N-1" value="召回策略+模型" style="rounded=1;whiteSpace=wrap;html=1;fontSize=12;glass=0;strokeWidth=2;shadow=0;strokeColor=#82b366;fillColor=#d5e8d4;" vertex="1" parent="WIyWlLk6GJQsqaUBKTNV-1">
          <mxGeometry x="260" y="210" width="120" height="40" as="geometry" />
        </mxCell>
        <mxCell id="eDqn43a6uC6IvlH1TO0N-36" style="edgeStyle=orthogonalEdgeStyle;rounded=0;orthogonalLoop=1;jettySize=auto;html=1;exitX=0.5;exitY=1;exitDx=0;exitDy=0;entryX=1;entryY=0.5;entryDx=0;entryDy=0;fontSize=14;" edge="1" parent="WIyWlLk6GJQsqaUBKTNV-1" source="eDqn43a6uC6IvlH1TO0N-2" target="eDqn43a6uC6IvlH1TO0N-1">
          <mxGeometry relative="1" as="geometry">
            <Array as="points">
              <mxPoint x="474" y="380" />
              <mxPoint x="394" y="380" />
              <mxPoint x="394" y="230" />
            </Array>
          </mxGeometry>
        </mxCell>
        <mxCell id="eDqn43a6uC6IvlH1TO0N-2" value="优质男性笔记池" style="rounded=1;whiteSpace=wrap;html=1;fontSize=12;glass=0;strokeWidth=2;shadow=0;fillColor=#d5e8d4;strokeColor=#82b366;" vertex="1" parent="WIyWlLk6GJQsqaUBKTNV-1">
          <mxGeometry x="414" y="330" width="120" height="40" as="geometry" />
        </mxCell>
        <mxCell id="eDqn43a6uC6IvlH1TO0N-9" style="edgeStyle=orthogonalEdgeStyle;rounded=0;orthogonalLoop=1;jettySize=auto;html=1;exitX=0.5;exitY=1;exitDx=0;exitDy=0;" edge="1" parent="WIyWlLk6GJQsqaUBKTNV-1" source="eDqn43a6uC6IvlH1TO0N-3" target="eDqn43a6uC6IvlH1TO0N-4">
          <mxGeometry relative="1" as="geometry" />
        </mxCell>
        <mxCell id="eDqn43a6uC6IvlH1TO0N-3" value="排序优化" style="rounded=1;whiteSpace=wrap;html=1;fontSize=12;glass=0;strokeWidth=1;shadow=0;" vertex="1" parent="WIyWlLk6GJQsqaUBKTNV-1">
          <mxGeometry x="260" y="270" width="120" height="40" as="geometry" />
        </mxCell>
        <mxCell id="eDqn43a6uC6IvlH1TO0N-16" style="edgeStyle=orthogonalEdgeStyle;rounded=0;orthogonalLoop=1;jettySize=auto;html=1;exitX=0.5;exitY=1;exitDx=0;exitDy=0;" edge="1" parent="WIyWlLk6GJQsqaUBKTNV-1" source="eDqn43a6uC6IvlH1TO0N-4">
          <mxGeometry relative="1" as="geometry">
            <mxPoint x="320" y="410" as="targetPoint" />
          </mxGeometry>
        </mxCell>
        <mxCell id="eDqn43a6uC6IvlH1TO0N-4" value="postrank保送策略" style="rounded=1;whiteSpace=wrap;html=1;fontSize=12;glass=0;strokeWidth=2;shadow=0;fillColor=#d5e8d4;strokeColor=#82b366;" vertex="1" parent="WIyWlLk6GJQsqaUBKTNV-1">
          <mxGeometry x="260" y="330" width="120" height="40" as="geometry" />
        </mxCell>
        <mxCell id="eDqn43a6uC6IvlH1TO0N-29" value="&lt;span style=&quot;font-weight: normal; font-size: 14px;&quot;&gt;分发&lt;/span&gt;" style="text;strokeColor=none;fillColor=none;html=1;fontSize=14;fontStyle=1;verticalAlign=middle;align=center;dashed=1;" vertex="1" parent="WIyWlLk6GJQsqaUBKTNV-1">
          <mxGeometry x="250" y="170" width="100" height="40" as="geometry" />
        </mxCell>
        <mxCell id="eDqn43a6uC6IvlH1TO0N-30" value="&lt;span style=&quot;font-weight: normal ; font-size: 14px&quot;&gt;供给&lt;/span&gt;" style="text;strokeColor=none;fillColor=none;html=1;fontSize=14;fontStyle=1;verticalAlign=middle;align=center;dashed=1;" vertex="1" parent="WIyWlLk6GJQsqaUBKTNV-1">
          <mxGeometry x="404" y="170" width="100" height="40" as="geometry" />
        </mxCell>
        <mxCell id="eDqn43a6uC6IvlH1TO0N-31" value="" style="endArrow=classic;html=1;rounded=0;fontSize=14;entryX=0.5;entryY=0;entryDx=0;entryDy=0;" edge="1" parent="WIyWlLk6GJQsqaUBKTNV-1" target="eDqn43a6uC6IvlH1TO0N-1">
          <mxGeometry width="50" height="50" relative="1" as="geometry">
            <mxPoint x="320" y="150" as="sourcePoint" />
            <mxPoint x="345" y="50" as="targetPoint" />
          </mxGeometry>
        </mxCell>
        <mxCell id="eDqn43a6uC6IvlH1TO0N-32" value="" style="endArrow=classic;html=1;rounded=0;fontSize=14;entryX=0.5;entryY=0;entryDx=0;entryDy=0;" edge="1" parent="WIyWlLk6GJQsqaUBKTNV-1">
          <mxGeometry width="50" height="50" relative="1" as="geometry">
            <mxPoint x="473.5" y="150" as="sourcePoint" />
            <mxPoint x="473.5" y="210" as="targetPoint" />
          </mxGeometry>
        </mxCell>
        <mxCell id="eDqn43a6uC6IvlH1TO0N-35" style="edgeStyle=orthogonalEdgeStyle;rounded=0;orthogonalLoop=1;jettySize=auto;html=1;exitX=0.5;exitY=1;exitDx=0;exitDy=0;entryX=0.5;entryY=0;entryDx=0;entryDy=0;fontSize=14;" edge="1" parent="WIyWlLk6GJQsqaUBKTNV-1" source="eDqn43a6uC6IvlH1TO0N-33" target="eDqn43a6uC6IvlH1TO0N-2">
          <mxGeometry relative="1" as="geometry" />
        </mxCell>
        <mxCell id="eDqn43a6uC6IvlH1TO0N-33" value="挖掘算法" style="shape=process;whiteSpace=wrap;html=1;backgroundOutline=1;fontSize=14;strokeColor=#000000;strokeWidth=1;" vertex="1" parent="WIyWlLk6GJQsqaUBKTNV-1">
          <mxGeometry x="424" y="265" width="100" height="50" as="geometry" />
        </mxCell>
      </root>
    </mxGraphModel>
  </diagram>
</mxfile>
